<svg width="150" height="380" xmlns="http://www.w3.org/2000/svg">

 <g>
  <title>background</title>
  <rect fill="none" id="canvas_background" height="382" width="152" y="-1" x="-1"/>
 </g>
 <g>
  <title>Layer 1</title>
  <g id="svg_1">
   <g id="svg_2">
    <path id="svg_3" fill="#000000" class="active-path" d="m84.626,10.672c-2.448,-4.896 -10.404,-4.896 -12.852,0c-20.808,37.944 -39.78,76.5 -50.796,118.116c-1.224,6.12 5.508,12.24 11.016,8.568c12.24,-8.568 22.644,-18.972 31.824,-31.212c-2.448,85.68 -14.076,174.42 6.12,258.876c1.224,6.12 11.627,4.896 11.015,-1.225c-11.015,-87.516 -2.447,-174.42 -1.224,-261.936c10.404,9.18 20.808,18.36 30.6,27.54c4.284,4.284 13.465,1.836 12.853,-5.508c-4.897,-40.391 -18.361,-78.335 -38.556,-113.219zm-6.732,72.828c-3.672,-5.508 -14.076,-4.284 -14.076,4.284c0,0.612 0,1.224 0,1.224c-7.344,7.344 -14.076,14.688 -22.032,22.032c9.792,-28.152 22.032,-54.468 36.107,-80.784c12.24,23.868 21.42,48.348 26.316,74.664c-6.732,-6.12 -14.076,-12.24 -20.809,-18.972c-1.222,-2.448 -3.671,-3.06 -5.506,-2.448z"/>
   </g>
  </g>
 </g>
</svg>